<svg width="593" height="596" viewBox="0 0 593 596" fill="none" xmlns="http://www.w3.org/2000/svg">
<path d="M371.182 48.3661C388.437 65.8466 412.4 75.7725 436.962 75.6129C466.022 75.424 490.679 83.5568 508.061 100.939C525.443 118.321 533.576 142.978 533.387 172.038C533.227 196.599 543.153 220.563 560.634 237.817C581.316 258.232 593 281.418 593 306C593 330.582 581.316 353.768 560.634 374.183C543.153 391.437 533.227 415.401 533.387 439.962C533.576 469.022 525.443 493.679 508.061 511.061C490.679 528.443 466.022 536.576 436.962 536.387C412.401 536.227 388.437 546.153 371.183 563.634C350.768 584.316 327.582 596 303 596C278.418 596 255.232 584.316 234.817 563.634C217.563 546.153 193.599 536.227 169.038 536.387C139.978 536.576 115.321 528.443 97.939 511.061C80.557 493.679 72.4243 469.022 72.6131 439.962C72.7727 415.401 62.8467 391.437 45.3662 374.183C24.6842 353.768 13 330.582 13 306C13 281.418 24.6842 258.232 45.3662 237.817C62.8468 220.563 72.7727 196.599 72.6131 172.038C72.4242 142.978 80.557 118.321 97.939 100.939C115.321 83.557 139.978 75.4242 169.038 75.6131C193.599 75.7727 217.563 65.8468 234.817 48.3663C255.232 27.6842 278.418 16 303 16C327.582 16 350.767 27.6842 371.182 48.3661Z" fill="#C5A3FF"/>
<path d="M394.582 284.928L399.231 318.547L360.958 297.857C239.794 335.46 112.999 332.068 48.3926 268.633C-147.305 46.3949 397.237 -114.781 484.05 128.579C513.744 211.822 436.764 265.483 394.582 284.928Z" stroke="#070D11" stroke-width="12"/>
<path d="M199.341 192.03C199.831 194.925 200.895 199.012 202.534 204.291C204.417 210.405 205.486 214.527 205.741 216.658L205.817 217.297C205.995 218.789 204.976 220.207 202.76 221.552C200.881 222.713 199.09 223.395 197.385 223.599C195.397 223.837 194.021 223.173 193.257 221.607C192.897 221.002 192.476 219.287 191.995 216.463C191.029 211.392 190.257 206.442 189.68 201.612C189.295 198.993 188.948 196.693 188.64 194.713C181.043 196.845 174.181 199.105 168.055 201.494C167.851 201.59 166.926 201.989 165.281 202.69L147.925 210.274C146.15 210.486 144.605 209.914 143.29 208.558C141.976 207.203 141.208 205.602 140.988 203.755C140.886 202.903 140.957 201.994 141.202 201.028C138.513 183.34 136.706 170.626 135.781 162.884L135.196 157.984C135.06 156.847 135.006 156.097 135.035 155.734C134.834 153.452 135.497 151.464 137.024 149.769C138.542 148.003 140.437 146.984 142.71 146.713C145.48 146.382 146.996 147.317 147.259 149.519C147.564 152.076 147.805 155.901 147.982 160.994C148.242 168.599 148.575 174.106 148.983 177.515L149.581 182.522C150.158 187.352 150.718 191.139 151.262 193.883C163.091 188.58 174.943 184.679 186.819 182.18C184.616 167.964 183.116 157.518 182.318 150.842C181.86 147.006 181.991 144.181 182.711 142.366C183.718 139.941 185.997 138.516 189.548 138.092C192.247 137.77 193.711 138.567 193.94 140.485C194.084 141.692 194.234 145.06 194.39 150.588C194.359 151.528 194.372 152.247 194.432 152.744L195.168 161.625C195.374 164.554 195.651 167.474 195.999 170.386C196.398 173.724 196.863 177.018 197.396 180.268C198.177 180.175 199.344 179.999 200.898 179.742C202.523 179.475 203.727 179.296 204.508 179.202C206.781 178.931 209.178 179.401 211.7 180.612C214.531 182.003 216.045 183.515 216.24 185.149C216.443 186.853 214.315 188.332 209.854 189.585C207.536 190.078 204.032 190.893 199.341 192.03Z" fill="#070D11"/>
<path d="M322.175 160.175C323.872 174.38 319.791 187.257 309.934 198.808C300.335 210.112 288.397 216.617 274.122 218.322C265.102 219.4 256.663 218.102 248.804 214.431C240.716 210.643 234.448 204.908 230.001 197.227C227.029 192.252 225.174 186.674 224.436 180.496C222.765 166.504 226.85 153.662 236.69 141.969C246.344 130.515 258.237 123.943 272.37 122.255C284.728 120.779 295.74 123.713 305.406 131.059C315.135 138.325 320.724 148.03 322.175 160.175ZM306.687 167.104C305.507 157.232 301.364 149.083 294.257 142.656C286.832 135.979 278.255 133.222 268.525 134.384C258.937 135.53 251.254 140.265 245.477 148.591C240.013 156.52 237.867 165.384 239.038 175.185C240.217 185.058 244.391 193.167 251.561 199.514C259.048 206.112 267.657 208.829 277.387 207.667C286.975 206.521 294.591 201.83 300.234 193.592C305.698 185.663 307.849 176.834 306.687 167.104Z" fill="#070D11"/>
<path d="M392.061 169.007C392.55 171.902 393.615 175.989 395.254 181.268C397.137 187.382 398.206 191.505 398.46 193.636L398.537 194.275C398.715 195.766 397.696 197.185 395.479 198.53C393.601 199.691 391.81 200.373 390.105 200.577C388.116 200.814 386.74 200.15 385.977 198.585C385.617 197.979 385.196 196.265 384.714 193.441C383.748 188.37 382.977 183.419 382.4 178.59C382.015 175.97 381.668 173.671 381.36 171.69C373.762 173.823 366.901 176.083 360.775 178.472C360.57 178.568 359.645 178.967 358 179.667L340.645 187.251C338.87 187.464 337.325 186.892 336.01 185.536C334.695 184.18 333.928 182.579 333.707 180.733C333.606 179.88 333.677 178.971 333.922 178.006C331.233 160.318 329.426 147.603 328.501 139.862L327.915 134.961C327.78 133.825 327.726 133.075 327.755 132.711C327.554 130.43 328.217 128.442 329.743 126.747C331.261 124.981 333.157 123.962 335.429 123.69C338.199 123.36 339.716 124.295 339.979 126.497C340.284 129.053 340.525 132.879 340.701 137.972C340.961 145.577 341.295 151.084 341.702 154.493L342.3 159.5C342.877 164.329 343.438 168.116 343.982 170.861C355.811 165.558 367.663 161.657 379.538 159.158C377.336 144.941 375.836 134.495 375.038 127.819C374.58 123.984 374.711 121.159 375.43 119.344C376.437 116.919 378.716 115.494 382.267 115.07C384.966 114.747 386.43 115.545 386.659 117.462C386.804 118.67 386.954 122.038 387.11 127.566C387.078 128.506 387.092 129.225 387.151 129.722L387.888 138.602C388.094 141.531 388.371 144.452 388.719 147.364C389.117 150.702 389.583 153.996 390.115 157.246C390.896 157.152 392.064 156.977 393.618 156.719C395.243 156.453 396.446 156.273 397.228 156.18C399.5 155.908 401.898 156.378 404.42 157.59C407.251 158.981 408.764 160.493 408.959 162.126C409.163 163.831 407.035 165.31 402.574 166.563C400.256 167.056 396.751 167.871 392.061 169.007Z" fill="#070D11"/>
</svg>
